<svg width="994" height="566" viewBox="0 0 994 566" fill="none" xmlns="http://www.w3.org/2000/svg">
<g opacity="0.5">
<mask id="mask0_1905_119" style="mask-type:luminance" maskUnits="userSpaceOnUse" x="0" y="0" width="994" height="566">
<path d="M994 0H0V566H994V0Z" fill="white"/>
</mask>
<g mask="url(#mask0_1905_119)">
<path d="M402.396 -65.9945L-82.457 425.212L-81.051 426.59L403.802 -64.6164L402.396 -65.9945Z" fill="#E3E3E3"/>
<path d="M-52.2179 96.1117L-53.8564 97.2056L283.259 598.624L284.898 597.53L-52.2179 96.1117Z" fill="#E3E3E3"/>
<path d="M191.224 -107.343L189.278 -107.021L311.67 626.601L313.615 626.279L191.224 -107.343Z" fill="#E3E3E3"/>
<path d="M721.019 -74.67L-18.3701 498.904L-17.1586 500.455L722.23 -73.1192L721.019 -74.67Z" fill="#E3E3E3"/>
<path d="M-23.8041 61.0922L-25.2334 62.4463L524.834 638.977L526.263 637.623L-23.8041 61.0922Z" fill="#E3E3E3"/>
<path d="M-47.7184 423.287L-48.2207 425.188L703.192 622.407L703.694 620.506L-47.7184 423.287Z" fill="#E3E3E3"/>
<path d="M785.358 -2.56898L-73.377 175.934L-72.9742 177.857L785.76 -0.645174L785.358 -2.56898Z" fill="#E3E3E3"/>
<path d="M177.303 286.537C184.709 286.537 190.714 280.554 190.714 273.173C190.714 265.793 184.709 259.81 177.303 259.81C169.896 259.81 163.892 265.793 163.892 273.173C163.892 280.554 169.896 286.537 177.303 286.537Z" fill="#E3E3E3"/>
<path d="M241.006 155.062C241.006 158.993 237.85 162.137 233.906 162.137C229.961 162.137 226.806 158.993 226.806 155.062C226.806 151.132 229.961 147.987 233.906 147.987C237.85 148.184 241.006 151.328 241.006 155.062Z" fill="#E3E3E3"/>
<path d="M386.358 192.399C386.358 196.723 382.808 200.064 378.666 200.064C374.327 200.064 370.975 196.526 370.975 192.399C370.975 188.272 374.525 184.734 378.666 184.734C382.808 184.538 386.358 188.075 386.358 192.399Z" fill="#E3E3E3"/>
<path d="M147.917 379.495C147.917 385.391 143.184 390.108 137.267 390.108C131.351 390.108 126.617 385.391 126.617 379.495C126.617 373.599 131.351 368.883 137.267 368.883C142.987 368.686 147.917 373.599 147.917 379.495Z" fill="#E3E3E3"/>
<path d="M269.801 379.498C275.029 379.498 279.267 375.274 279.267 370.064C279.267 364.854 275.029 360.631 269.801 360.631C264.572 360.631 260.334 364.854 260.334 370.064C260.334 375.274 264.572 379.498 269.801 379.498Z" fill="#E3E3E3"/>
<path d="M182.234 163.706C182.234 166.458 180.065 168.816 177.106 168.816C174.345 168.816 171.979 166.654 171.979 163.706C171.979 160.955 174.148 158.597 177.106 158.597C180.065 158.597 182.234 160.955 182.234 163.706Z" fill="#E3E3E3"/>
<path d="M218.128 63.8714C220.198 63.8714 221.875 62.1996 221.875 60.1373C221.875 58.0751 220.198 56.4033 218.128 56.4033C216.059 56.4033 214.381 58.0751 214.381 60.1373C214.381 62.1996 216.059 63.8714 218.128 63.8714Z" fill="#E3E3E3"/>
<path d="M62.52 149.362C62.52 151.13 60.9422 152.703 59.1672 152.703C57.3922 152.703 55.8145 151.13 55.8145 149.362C55.8145 147.593 57.3922 146.021 59.1672 146.021C61.1394 146.021 62.52 147.593 62.52 149.362Z" fill="#E3E3E3"/>
<path d="M49.3052 255.486C53.0085 255.486 56.0107 252.494 56.0107 248.804C56.0107 245.114 53.0085 242.122 49.3052 242.122C45.6018 242.122 42.5996 245.114 42.5996 248.804C42.5996 252.494 45.6018 255.486 49.3052 255.486Z" fill="#E3E3E3"/>
<path d="M220.495 492.891C220.495 496.822 217.339 500.163 213.198 500.163C209.253 500.163 205.9 497.018 205.9 492.891C205.9 488.961 209.056 485.62 213.198 485.62C217.339 485.816 220.495 488.961 220.495 492.891Z" fill="#E3E3E3"/>
<path d="M292.284 472.845C292.284 475.793 289.917 478.152 286.959 478.152C284 478.152 281.634 475.793 281.634 472.845C281.634 469.897 284 467.539 286.959 467.539C289.917 467.539 292.284 469.897 292.284 472.845Z" fill="#E3E3E3"/>
<path d="M329.757 444.155C336.293 444.155 341.59 438.875 341.59 432.363C341.59 425.851 336.293 420.571 329.757 420.571C323.222 420.571 317.924 425.851 317.924 432.363C317.924 438.875 323.222 444.155 329.757 444.155Z" fill="#E3E3E3"/>
<path d="M571.55 47.9543C574.491 47.9543 576.875 45.5786 576.875 42.6481C576.875 39.7175 574.491 37.3418 571.55 37.3418C568.609 37.3418 566.225 39.7175 566.225 42.6481C566.225 45.5786 568.609 47.9543 571.55 47.9543Z" fill="#E3E3E3"/>
<path d="M388.724 90.5998C394.171 90.5998 398.586 86.2004 398.586 80.7734C398.586 75.3464 394.171 70.947 388.724 70.947C383.278 70.947 378.863 75.3464 378.863 80.7734C378.863 86.2004 383.278 90.5998 388.724 90.5998Z" fill="#E3E3E3"/>
<path d="M320.684 22.9928C320.684 25.5477 318.711 27.5129 316.147 27.5129C313.584 27.5129 311.611 25.5477 311.611 22.9928C311.611 20.4379 313.584 18.4727 316.147 18.4727C318.514 18.4727 320.684 20.4379 320.684 22.9928Z" fill="#E3E3E3"/>
</g>
</g>
</svg>
